<!-- Generated by IcoMoon.io -->
<svg version="1.1" xmlns="http://www.w3.org/2000/svg" width="34" height="32" viewBox="0 0 34 32">
<path fill="rgb(255, 140, 0)" stroke-linejoin="miter" stroke-linecap="butt" stroke-miterlimit="4" stroke-width="0.4324" stroke="rgb(255, 140, 0)" d="M14.272 6.383l-0.189 0.024c-2.721 0.341-4.607 1.44-5.704 3.274-1.042 1.742-1.608 4.482-1.672 8.247h7.443v13.424h-13.501v-10.35l0.012-1.032c0.12-5.105 1.139-9.347 3.070-12.716l0.002-0.003c2.154-3.613 5.594-5.81 10.288-6.598l0.252-0.043v5.774zM33.081 6.383l-0.189 0.024c-2.721 0.341-4.607 1.44-5.704 3.274-1.042 1.742-1.608 4.482-1.672 8.247h7.443v13.424h-13.501v-10.35c0-5.568 1.022-10.155 3.082-13.748l0.002-0.003c2.154-3.613 5.594-5.81 10.288-6.598l0.252-0.043v5.774z"></path>
</svg>
