<svg aria-hidden="true" style="position: absolute; width: 0; height: 0; overflow: hidden;" version="1.1" xmlns="http://www.w3.org/2000/svg" xmlns:xlink="http://www.w3.org/1999/xlink">
<defs>
<symbol id="quotes" viewBox="0 0 34 32">
<path stroke-linejoin="miter" stroke-linecap="butt" stroke-miterlimit="4" stroke-width="0.4324" d="M14.272 6.383l-0.189 0.024c-2.721 0.341-4.607 1.44-5.704 3.274-1.042 1.742-1.608 4.482-1.672 8.247h7.443v13.424h-13.501v-10.35l0.012-1.032c0.12-5.105 1.139-9.347 3.070-12.716l0.002-0.003c2.154-3.613 5.594-5.81 10.288-6.598l0.252-0.043v5.774zM33.081 6.383l-0.189 0.024c-2.721 0.341-4.607 1.44-5.704 3.274-1.042 1.742-1.608 4.482-1.672 8.247h7.443v13.424h-13.501v-10.35c0-5.568 1.022-10.155 3.082-13.748l0.002-0.003c2.154-3.613 5.594-5.81 10.288-6.598l0.252-0.043v5.774z"></path>
</symbol>
<symbol id="next" viewBox="0 0 19 32">
<path stroke-linejoin="miter" stroke-linecap="butt" stroke-miterlimit="4" stroke-width="0.8" d="M1.551 0.751l0.283 0.283c-0.075 0.074-0.135 0.162-0.175 0.259s-0.061 0.201-0.061 0.306c0 0.105 0.021 0.211 0.061 0.308 0.020 0.048 0.046 0.094 0.075 0.137l0.1 0.122 13.836 13.833-13.836 13.834c-0.15 0.15-0.234 0.353-0.234 0.566s0.084 0.417 0.234 0.567c0.15 0.15 0.355 0.234 0.567 0.234s0.415-0.084 0.566-0.234l14.402-14.4c0.074-0.074 0.133-0.162 0.173-0.259s0.061-0.203 0.061-0.308c0-0.105-0.021-0.209-0.061-0.306s-0.099-0.185-0.173-0.259h-0.002l-14.4-14.402c-0.074-0.074-0.162-0.133-0.259-0.173s-0.201-0.061-0.306-0.061c-0.105 0-0.211 0.021-0.308 0.061s-0.185 0.099-0.259 0.173l-0.283-0.281z"></path>
</symbol>
<symbol id="prev" viewBox="0 0 19 32">
<path stroke-linejoin="miter" stroke-linecap="butt" stroke-miterlimit="4" stroke-width="0.8" d="M17.649 0.751l-0.283 0.283c0.075 0.074 0.135 0.162 0.175 0.259s0.061 0.201 0.061 0.306c0 0.105-0.021 0.211-0.061 0.308-0.020 0.048-0.046 0.094-0.075 0.137l-0.1 0.122-13.836 13.833 13.836 13.834c0.15 0.15 0.234 0.353 0.234 0.566s-0.084 0.417-0.234 0.567c-0.15 0.15-0.355 0.234-0.567 0.234s-0.415-0.084-0.566-0.234l-14.402-14.4c-0.074-0.074-0.133-0.162-0.173-0.259s-0.061-0.203-0.061-0.308c0-0.105 0.021-0.209 0.061-0.306s0.099-0.185 0.173-0.259h0.002l14.4-14.402c0.074-0.074 0.162-0.133 0.259-0.173s0.201-0.061 0.306-0.061c0.105 0 0.211 0.021 0.308 0.061s0.185 0.099 0.259 0.173l0.283-0.281z"></path>
</symbol>
<symbol id="arrowhead-down1" viewBox="0 0 32 32">
<path d="M23.16 16.52l-7.16 5.76-7.147-5.973c-0.135-0.112-0.29-0.196-0.458-0.248s-0.343-0.070-0.518-0.054-0.344 0.066-0.499 0.148c-0.155 0.082-0.293 0.193-0.405 0.328s-0.196 0.29-0.248 0.458c-0.052 0.167-0.070 0.343-0.054 0.518s0.066 0.344 0.148 0.499 0.193 0.293 0.328 0.405l8 6.667c0.239 0.196 0.538 0.303 0.847 0.303s0.608-0.107 0.847-0.303l8-6.44c0.137-0.11 0.251-0.246 0.335-0.4s0.137-0.324 0.156-0.498c0.019-0.175 0.003-0.351-0.047-0.52s-0.133-0.325-0.243-0.462c-0.111-0.136-0.248-0.249-0.402-0.332s-0.324-0.135-0.499-0.152-0.351 0-0.519 0.051c-0.168 0.051-0.324 0.135-0.46 0.246v0z"></path>
<path d="M15.147 15.693c0.239 0.196 0.538 0.303 0.847 0.303s0.608-0.107 0.847-0.303l8-6.44c0.137-0.11 0.251-0.246 0.335-0.4s0.137-0.323 0.156-0.498c0.019-0.175 0.002-0.351-0.047-0.52s-0.133-0.325-0.243-0.462c-0.11-0.137-0.246-0.251-0.4-0.335s-0.323-0.137-0.498-0.156c-0.175-0.019-0.351-0.002-0.52 0.047s-0.325 0.133-0.462 0.243l-7.16 5.773-7.147-5.973c-0.272-0.226-0.623-0.335-0.976-0.303s-0.678 0.204-0.904 0.476c-0.226 0.272-0.335 0.623-0.303 0.976s0.204 0.678 0.476 0.904l8 6.667z"></path>
</symbol>
<symbol id="arrowhead-down2" viewBox="0 0 32 32">
<path stroke-linejoin="miter" stroke-linecap="round" stroke-miterlimit="4" stroke-width="1.3333" d="M9.333 17.333l6.667 6.667 6.667-6.667"></path>
<path stroke-linejoin="miter" stroke-linecap="round" stroke-miterlimit="4" stroke-width="1.3333" d="M9.333 9.333l6.667 6.667 6.667-6.667"></path>
</symbol>
<symbol id="download" viewBox="0 0 32 32">
<path stroke-linejoin="round" stroke-linecap="round" stroke-miterlimit="4" stroke-width="0.6667" d="M21.333 14.667l-5.333 5.333M16 20l-5.333-5.333M16 20v-16M28 20v2.667c0 1.473-1.194 2.667-2.667 2.667h-18.667c-1.473 0-2.667-1.194-2.667-2.667v-2.667"></path>
</symbol>
<symbol id="arrowhead-down3" viewBox="0 0 32 32">
<path stroke-linejoin="round" stroke-linecap="butt" stroke-miterlimit="4" stroke-width="1.3333" d="M26.667 2.667l-10.667 13.333-10.667-13.333"></path>
<path stroke-linejoin="round" stroke-linecap="butt" stroke-miterlimit="4" stroke-width="1.3333" d="M26.667 16l-10.667 13.333-10.667-13.333"></path>
</symbol>

</defs>
</svg>



